<svg width="40" height="40" viewBox="0 0 40 40" fill="none" xmlns="http://www.w3.org/2000/svg">
<path d="M38.0953 35.8334C38.0953 37.0819 37.0819 38.0953 35.8333 38.0953H4.16667C2.9181 38.0953 1.90476 37.0819 1.90476 35.8334V4.16669C1.90476 2.91812 2.9181 1.90479 4.16667 1.90479H35.8333C37.0819 1.90479 38.0953 2.91812 38.0953 4.16669V35.8334Z" fill="#3B5998"/>
<path d="M26.7857 38.0953V24.5239H31.3095L32.4405 18.8691H26.7857V16.6072C26.7857 14.3453 27.9189 13.2143 30.1786 13.2143H32.4405V7.55957C31.3095 7.55957 29.9072 7.55957 27.9167 7.55957C23.7604 7.55957 21.131 10.8178 21.131 15.4762V18.8691H16.6071V24.5239H21.131V38.0953H26.7857Z" fill="white"/>
</svg>
