<svg width="40" height="40" viewBox="0 0 40 40" fill="none" xmlns="http://www.w3.org/2000/svg">
<rect x="1.90472" y="1.90503" width="36.1905" height="36.1905" rx="5" fill="#F99400"/>
<path fill-rule="evenodd" clip-rule="evenodd" d="M17.2478 25.9592C16.2031 25.7165 15.2291 25.3657 14.3035 24.8893C13.972 24.7181 13.6456 24.5347 13.3289 24.3377C12.3949 23.7545 12.1046 22.5514 12.6659 21.6258C13.2433 20.675 14.44 20.3661 15.3952 20.9454C16.335 21.5138 17.3308 21.927 18.4129 22.1221C20.5422 22.5044 22.5429 22.1523 24.407 21.0561C24.7874 20.8321 25.1717 20.6564 25.6255 20.6589C26.5055 20.6641 27.276 21.2273 27.5315 22.0648C27.7884 22.9087 27.4684 23.8221 26.7211 24.3029C25.5567 25.0522 24.2957 25.58 22.9529 25.9109C22.895 25.9244 22.8383 25.9411 22.7572 25.9624C22.8119 26.0216 22.8544 26.0679 22.8995 26.113C24.0929 27.3064 25.2869 28.4979 26.4791 29.6933C27.1762 30.3923 27.323 31.3514 26.8602 32.1509C26.1939 33.3025 24.6619 33.4937 23.7022 32.5397C22.5126 31.3566 21.3295 30.1683 20.1444 28.9833C20.1019 28.9408 20.062 28.8951 19.9674 28.7921C19.9281 28.8623 19.9069 28.9305 19.8631 28.9743C18.6755 30.1664 17.4879 31.3566 16.2951 32.5436C15.477 33.3598 14.2275 33.3546 13.4358 32.541C12.7116 31.7969 12.691 30.615 13.3914 29.8342C13.486 29.7274 13.589 29.627 13.6894 29.5259C14.8288 28.3859 15.9675 27.2479 17.1068 26.1072C17.1461 26.0673 17.1866 26.0229 17.2478 25.9592Z" fill="white"/>
<path fill-rule="evenodd" clip-rule="evenodd" d="M20.0032 6.84766C23.7398 6.84766 26.7884 9.89751 26.7878 13.6342C26.7871 17.3754 23.7675 20.4207 20.0057 20.422C16.2227 20.4259 13.2186 17.376 13.2128 13.6471C13.2063 9.90523 16.2337 6.85796 20.0032 6.84766ZM22.8078 13.6406C22.8091 12.0945 21.5583 10.8334 20.0199 10.8296C18.4609 10.8257 17.1908 12.0758 17.1883 13.6155C17.1857 15.1578 18.4364 16.442 19.9459 16.4433C21.5455 16.4446 22.8065 15.21 22.8078 13.6406Z" fill="white"/>
</svg>
