<svg width="40" height="40" viewBox="0 0 40 40" fill="none" xmlns="http://www.w3.org/2000/svg">
<rect x="2" y="2" width="36" height="36" rx="6" fill="black"/>
<path d="M17.7667 17.9519V17.0966C17.457 17.0497 17.1441 17.024 16.8305 17.0198C13.7947 17.014 11.1078 18.8986 10.196 21.6725C9.28411 24.4464 10.3603 27.4671 12.8514 29.1282C10.2375 26.4476 10.3867 22.244 13.1841 19.7393C14.4306 18.6243 16.0619 17.988 17.7667 17.9519V17.9519Z" fill="#25F4EE"/>
<path d="M17.9351 27.6363C19.6321 27.6344 21.0267 26.3533 21.1018 24.7283V10.23H23.8658C23.8092 9.92723 23.7824 9.62006 23.7856 9.3125H20.0053V23.7962C19.9424 25.429 18.5437 26.7227 16.8387 26.7256C16.3295 26.7217 15.8274 26.6012 15.376 26.3757C15.6687 26.7642 16.0531 27.0809 16.4978 27.3C16.9426 27.5191 17.4351 27.6343 17.9351 27.6363V27.6363ZM29.0275 15.1489V14.3432C28.0102 14.3432 27.0152 14.0555 26.1682 13.5161C26.9106 14.3439 27.9145 14.9171 29.0275 15.1489V15.1489Z" fill="#25F4EE"/>
<path d="M26.1693 13.5171C25.3343 12.6064 24.8742 11.4354 24.875 10.2232H23.8658C23.9957 10.8935 24.267 11.5313 24.6631 12.0977C25.0592 12.6641 25.5717 13.147 26.1693 13.5171V13.5171ZM16.8306 20.6433C15.0779 20.652 13.6639 22.0205 13.673 23.7C13.6759 24.2513 13.8352 24.7915 14.1337 25.2628C14.4323 25.7341 14.8589 26.1188 15.3679 26.3757C14.3425 25.0189 14.659 23.1217 16.0749 22.1381C16.6159 21.7626 17.2671 21.5609 17.9352 21.5617C18.2526 21.5656 18.5681 21.6133 18.8714 21.7027V18.0161C18.562 17.9714 18.2486 17.9481 17.9352 17.9462H17.7668V20.7492C17.4615 20.6695 17.146 20.6345 16.8306 20.6433V20.6433Z" fill="#FE2C55"/>
<path d="M29.0275 15.1489V17.952C27.1443 17.9485 25.31 17.3772 23.7846 16.3191V23.6834C23.7765 27.3583 20.6656 30.3334 16.8305 30.3334C15.4062 30.336 14.0163 29.9149 12.8524 29.1282C15.4622 31.8175 19.8531 31.9711 22.6607 29.4703C23.3592 28.8482 23.9162 28.0948 24.2972 27.2572C24.6782 26.4196 24.8749 25.5157 24.875 24.6019V17.258C26.4057 18.3087 28.2421 18.8723 30.125 18.8695V15.2617C29.7558 15.2597 29.3886 15.2228 29.0275 15.1489V15.1489Z" fill="#FE2C55"/>
<path d="M23.7846 23.6844V16.3201C25.3149 17.3716 27.1516 17.9354 29.0347 17.9316V15.1285C27.9222 14.9032 26.9162 14.3377 26.1682 13.5171C25.5709 13.1467 25.0586 12.6637 24.6626 12.0974C24.2666 11.5311 23.9951 10.8934 23.8648 10.2232H21.1008V24.7283C21.0288 26.4068 19.5519 27.7112 17.8002 27.6431C17.321 27.6245 16.8524 27.502 16.4297 27.2848C16.007 27.0677 15.6412 26.7615 15.3598 26.3893C13.809 25.6069 13.2136 23.768 14.0301 22.282C14.298 21.794 14.6994 21.3851 15.1913 21.099C15.6832 20.8129 16.247 20.6604 16.8224 20.6579C17.1399 20.6608 17.4554 20.7074 17.7586 20.7978V17.953C13.9307 18.0152 10.8796 21.0816 10.9446 24.7497C10.9739 26.4108 11.6517 28.0011 12.8443 29.207C14.0196 29.9677 15.4115 30.3618 16.8295 30.3354C20.6656 30.3344 23.7765 27.3593 23.7846 23.6844Z" fill="white"/>
</svg>
