<svg width="40" height="40" viewBox="0 0 40 40" fill="none" xmlns="http://www.w3.org/2000/svg">
<rect x="1.90482" y="1.90479" width="36.1905" height="36.1905" rx="5" fill="#54769B"/>
<path d="M20.8469 27.6192C21.6935 27.6192 21.6935 26.434 21.6935 25.9261C21.6935 25.0795 22.54 24.233 23.3866 24.233C24.2332 24.233 25.6723 25.6721 26.7729 26.7726C27.6194 27.6192 27.6194 27.6192 28.466 27.6192C29.3125 27.6192 31.0057 27.6192 31.0057 27.6192C31.0057 27.6192 32.6988 27.5345 32.6988 25.9261C32.6988 25.4181 32.1062 24.4869 30.1591 22.5398C28.466 20.8467 27.6194 21.6933 30.1591 18.307C31.6829 16.1906 32.8681 14.3282 32.6988 13.8203C32.5295 13.3123 28.212 12.4658 27.6194 13.2277C25.9263 15.7673 25.5877 16.3599 25.0797 17.4605C24.2332 19.1536 24.1485 20.0002 23.3866 20.0002C22.6247 20.0002 22.54 18.3917 22.54 17.4605C22.54 14.6668 22.9633 12.7197 21.6935 12.3811C21.6935 12.3811 20.0004 12.3811 19.1538 12.3811C17.7993 12.3811 16.6141 13.2277 16.6141 13.2277C16.6141 13.2277 15.5982 14.0742 15.7676 14.0742C16.0215 14.0742 17.4607 13.7356 17.4607 14.9208C17.4607 15.7673 17.4607 16.6139 17.4607 16.6139C17.4607 16.6139 17.4607 20.0002 16.6141 20.0002C15.7676 20.0002 14.0744 16.6139 12.3813 14.0742C11.7041 13.0584 11.5348 13.2277 10.6882 13.2277C9.75698 13.2277 8.99507 13.2277 8.14851 13.2277C7.30195 13.2277 7.21729 13.7356 7.30195 14.0742C8.99507 18.307 10.1803 20.9314 13.3972 24.3176C16.3602 27.3652 18.3072 27.5345 20.0004 27.6192C20.4236 27.6192 20.0004 27.6192 20.8469 27.6192Z" fill="white"/>
</svg>
