<svg width="40" height="40" viewBox="0 0 40 40" fill="none" xmlns="http://www.w3.org/2000/svg">
<g clip-path="url(#clip0)">
<path d="M38.6666 12.3559C38.6666 12.3559 38.2951 9.55472 37.153 8.32138C35.7038 6.70472 34.0806 6.69519 33.3364 6.60353C28.0049 6.19043 20.0084 6.19043 20.0084 6.19043C15.5628 6.19043 11.097 6.25995 6.66373 6.60353C5.91945 6.69519 4.29751 6.70472 2.84706 8.32138C1.70622 9.55472 1.33349 12.3559 1.33349 12.3559C1.33349 12.3559 0.952415 15.6428 0.952415 18.9297V22.0107C0.952415 25.3 1.33349 28.5857 1.33349 28.5857C1.33349 28.5857 1.70503 31.3857 2.84706 32.6166C4.29751 34.2333 6.1993 34.1845 7.04718 34.3535C10.0946 34.6654 20 34.7619 20 34.7619C20 34.7619 28.0049 34.7476 33.3364 34.3392C34.0806 34.244 35.7038 34.2345 37.153 32.6178C38.2939 31.3869 38.6666 28.5869 38.6666 28.5869C38.6666 28.5869 39.0477 25.3 39.0477 22.0119V18.9309C39.0477 15.6428 38.6666 12.3559 38.6666 12.3559Z" fill="#E02F2F"/>
<path d="M15.2426 13.3333V27.619L27.151 20.4761L15.2426 13.3333Z" fill="white"/>
</g>
<defs>
<clipPath id="clip0">
<rect width="40" height="40" fill="white"/>
</clipPath>
</defs>
</svg>
