<svg width="60" height="60" viewBox="0 0 60 60" fill="none" xmlns="http://www.w3.org/2000/svg">
<path d="M50.5176 25.8335H51.0837C52.3263 25.8335 53.3337 24.8261 53.3337 23.5835V16.4168C53.3337 15.1742 52.3263 14.1668 51.0837 14.1668L8.91699 14.1668C7.67435 14.1668 6.66699 15.1742 6.66699 16.4168L6.66699 23.5835C6.66699 24.8261 7.67435 25.8335 8.91699 25.8335H9.48308" stroke="#39B980" stroke-width="5" stroke-linecap="round" stroke-linejoin="round"/>
<path d="M43.3337 22.5V46.9167C43.3337 48.1593 42.3263 49.1667 41.0837 49.1667H18.917C17.6744 49.1667 16.667 48.1593 16.667 46.9167L16.667 22.5" stroke="#39B980" stroke-width="5" stroke-linecap="round" stroke-linejoin="round"/>
<path d="M34.8376 23.7038C35.0364 24.4459 35.0619 25.2238 34.912 25.9773C34.7621 26.7308 34.4409 27.4397 33.9732 28.0492C33.5055 28.6587 32.9039 29.1525 32.2148 29.4923C31.5258 29.8321 30.7678 30.0088 29.9996 30.0088C29.2313 30.0088 28.4733 29.8321 27.7843 29.4923C27.0953 29.1525 26.4936 28.6587 26.0259 28.0492C25.5582 27.4397 25.237 26.7308 25.0871 25.9773C24.9373 25.2238 24.9627 24.4459 25.1616 23.7038" stroke="#39B980" stroke-width="5" stroke-linecap="round" stroke-linejoin="round"/>
</svg>
