<svg width="60" height="60" viewBox="0 0 60 60" fill="none" xmlns="http://www.w3.org/2000/svg">
<path d="M9.16699 22.5H48.4734C49.0994 22.5 49.6997 22.7507 50.1424 23.1969C50.585 23.6431 50.8337 24.2483 50.8337 24.8794V33.3333M24.5837 48.3333H13.8874C12.6355 48.3333 11.4348 47.832 10.5496 46.9395C9.66432 46.0471 9.16699 44.8367 9.16699 43.5746V20" stroke="#39B980" stroke-width="5" stroke-linecap="round" stroke-linejoin="round"/>
<path d="M13.8525 22.5002C12.6098 22.5002 11.418 22.0173 10.5393 21.1577C9.66064 20.2982 9.16699 19.1324 9.16699 17.9168C9.16699 16.7013 9.66064 15.5355 10.5393 14.6759C11.418 13.8164 12.6098 13.3335 13.8525 13.3335H40.1576C40.7789 13.3335 41.3748 13.5749 41.8141 14.0047C42.2535 14.4345 42.5003 15.0174 42.5003 15.6252V22.5002" stroke="#39B980" stroke-width="5" stroke-linecap="round" stroke-linejoin="round"/>
<path d="M46.8865 49.386L36.8691 39.3687" stroke="#39B980" stroke-width="5" stroke-linecap="round" stroke-linejoin="round"/>
<path d="M33.333 45.8335V35.8335H43.333" stroke="#39B980" stroke-width="5" stroke-linecap="round" stroke-linejoin="round"/>
</svg>
